<svg xmlns="http://www.w3.org/2000/svg" viewBox="0 0 489.82 132.03"><defs><style>.cls-1{fill:#046434;}.cls-2{fill:none;stroke:#84b43c;}.cls-3{fill:#84b43c;}</style></defs><g id="Camada_2" data-name="Camada 2"><g id="Camada_1-2" data-name="Camada 1"><path class="cls-1" d="M188.16,47.94q8.25,0,8.25-6.61,0-3.44-3.65-5.1a26.51,26.51,0,0,0-5-1.77,40.48,40.48,0,0,1-5.1-1.69,21,21,0,0,1-4.09-2.39q-4.06-3-4.06-9.32a12.15,12.15,0,0,1,4.37-9.91q4.38-3.63,11.44-3.63a30.89,30.89,0,0,1,13.13,2.81V20.67l-7,.48v-4a3.2,3.2,0,0,0-.28-1.52q-.75-1.32-4.85-1.32t-6.06,1.46a5.16,5.16,0,0,0-2,4.46,5.35,5.35,0,0,0,1.65,3.88,8.48,8.48,0,0,0,3.27,1.81c1.45.49,3,1,4.62,1.5a33.16,33.16,0,0,1,4.33,1.64,22.53,22.53,0,0,1,4,2.48q4.2,3.09,4.21,9.57a12.37,12.37,0,0,1-4.64,10.2Q196,55.05,188.38,55a31.85,31.85,0,0,1-13.66-2.83V41.33l7-.48v4.21a3.18,3.18,0,0,0,.27,1.5,3.08,3.08,0,0,0,1.69.94A16.42,16.42,0,0,0,188.16,47.94Z"/><path class="cls-1" d="M239,20.88V46.5a2.31,2.31,0,0,0,.37,1.52,2,2,0,0,0,1.36.48l2.2.15v5.5H232v-4l-.21-.07a10.87,10.87,0,0,1-9.44,5q-7,0-10.4-4.48T208.6,38.31q0-9.37,4.54-14.6t13.65-5.25A34.7,34.7,0,0,1,239,20.88Zm-8,22.31V25.35a13,13,0,0,0-5.31-.89,7,7,0,0,0-6.67,3.73C217.7,30.66,217,33.94,217,38q0,11.17,7.14,11.17a7,7,0,0,0,5-1.81A5.63,5.63,0,0,0,231.06,43.19Z"/><path class="cls-1" d="M282,48.71v5.44H270.87V49.67Q267.07,55,259.71,55,249,55,249,43.13V27.21c0-1.24-.58-1.88-1.73-1.92l-2.21-.14V19.5h12.13V41.33a11.68,11.68,0,0,0,1,5.52q1,1.86,4.27,1.86a7,7,0,0,0,5.21-2,6.63,6.63,0,0,0,2-4.81V27.35a2.33,2.33,0,0,0-.4-1.54,1.83,1.83,0,0,0-1.33-.52l-2.21-.14V19.5h12.12v27a2.27,2.27,0,0,0,.34,1.48,2.31,2.31,0,0,0,1.39.52ZM257.29,13.23l8-13.23,3.23,1.52c1.33.74,2,1.56,2,2.48a4.31,4.31,0,0,1-1.71,3L260,15.5Z"/><path class="cls-1" d="M301.86,18.46a19.21,19.21,0,0,1,5.65.83v-7c0-1-.6-1.54-1.8-1.64l-2.95-.21V5h12.81V46.92a1.49,1.49,0,0,0,1.71,1.58l2.41.15v5.5H308.55V50.08l-.21-.06A10.29,10.29,0,0,1,299,55q-7.86,0-11-5.23a21.94,21.94,0,0,1-2.89-11.64q0-9,4.44-14.34T301.86,18.46Zm5.65,24.94V25.56a12.85,12.85,0,0,0-5.23-1.1,7.1,7.1,0,0,0-6.65,3.67,18.33,18.33,0,0,0-2.1,9.29Q293.53,49,301,49a6.88,6.88,0,0,0,4.67-1.6A5.09,5.09,0,0,0,307.51,43.4Z"/><path class="cls-1" d="M339.33,18.46A12.36,12.36,0,0,1,347.51,21,8.67,8.67,0,0,1,350.56,28a10.6,10.6,0,0,1-1.32,5.34A10.41,10.41,0,0,1,346,37a16.6,16.6,0,0,1-4.66,2.13,36.79,36.79,0,0,1-10.4,1.37,9.19,9.19,0,0,0,2.25,5.92q2.08,2.23,6.36,2.23a14.61,14.61,0,0,0,8.54-3l2.6,5.59A16.71,16.71,0,0,1,346,53.73,20,20,0,0,1,338.58,55c-5.62,0-9.73-1.55-12.36-4.64s-3.91-7.36-3.91-12.77A20.9,20.9,0,0,1,326.79,24Q331.26,18.46,339.33,18.46Zm-3.15,15.75a11.19,11.19,0,0,0,4.65-2A4.5,4.5,0,0,0,343,28.52q0-4.18-4.12-4.19a6.74,6.74,0,0,0-5.94,3.07,14.06,14.06,0,0,0-2.27,7.33A37.83,37.83,0,0,0,336.18,34.21Z"/><path class="cls-1" d="M383.13,18.46a19.21,19.21,0,0,1,5.65.83v-7c0-1-.6-1.54-1.8-1.64l-3-.21V5h12.81V46.92a1.49,1.49,0,0,0,1.71,1.58l2.41.15v5.5H389.82V50.08l-.21-.06a10.29,10.29,0,0,1-9.38,5q-7.86,0-11-5.23a21.94,21.94,0,0,1-2.89-11.64q0-9,4.43-14.34T383.13,18.46Zm5.65,24.94V25.56a12.85,12.85,0,0,0-5.23-1.1,7.1,7.1,0,0,0-6.65,3.67,18.33,18.33,0,0,0-2.1,9.29Q374.8,49,382.23,49a6.88,6.88,0,0,0,4.67-1.6A5.09,5.09,0,0,0,388.78,43.4Z"/><path class="cls-1" d="M419.14,49.13q7.51,0,7.52-12.13,0-6.12-1.69-9.29a5.87,5.87,0,0,0-5.64-3.19,6.38,6.38,0,0,0-5.84,3c-1.24,2-1.85,4.77-1.85,8.27q0,9.72,3.58,12.19A6.64,6.64,0,0,0,419.14,49.13ZM403.3,36.79a23.35,23.35,0,0,1,1.53-8.85,13.52,13.52,0,0,1,4.06-5.75,17.38,17.38,0,0,1,10.81-3.73,16.27,16.27,0,0,1,7,1.35,13.78,13.78,0,0,1,4.48,3.11,14,14,0,0,1,2.75,5.1,24.4,24.4,0,0,1,1.14,7.88q0,9.49-4.62,14.39a15.48,15.48,0,0,1-11.81,4.9q-7.19,0-11.25-4.65T403.3,36.79Z"/><path class="cls-1" d="M174.24,130.84v-6.41l2.62-.25c1.53-.15,2.3-.89,2.3-2.21V85.09l-4.53-.22V78.12h21.73q11.67,0,18.21,6.18t6.54,18.32a38.71,38.71,0,0,1-2,13.12,21.75,21.75,0,0,1-5.37,8.77,24,24,0,0,1-17,6.33Zm14.6-45v37.44h8.09a12.64,12.64,0,0,0,10.62-4.92q3.81-4.91,3.81-14.27,0-18.24-15.48-18.25Z"/><path class="cls-1" d="M239.33,91v33.29l4.53.25v6.33H225v-6l2.61-.25a2.27,2.27,0,0,0,2.31-2.52V100a2.77,2.77,0,0,0-.44-1.81,2,2,0,0,0-1.56-.48l-2.77-.17V91Zm-10-6.88A5.49,5.49,0,0,1,227.69,80a5.78,5.78,0,0,1,6-6,5.93,5.93,0,0,1,4.4,1.71,5.81,5.81,0,0,1,1.7,4.25,5.48,5.48,0,0,1-1.7,4.14,6.08,6.08,0,0,1-4.4,1.63A5.94,5.94,0,0,1,229.36,84.09Z"/><path class="cls-1" d="M282.15,92.55v29.5a2.59,2.59,0,0,0,.44,1.73,2.22,2.22,0,0,0,1.56.56l2.52.17v6.33h-12.6v-4.6l-.23-.08A12.56,12.56,0,0,1,263,131.87q-8.08,0-12-5.15t-3.88-14.1q0-10.8,5.23-16.82t15.71-6A39.69,39.69,0,0,1,282.15,92.55ZM273,118.24V97.7a15,15,0,0,0-6.1-1,8.14,8.14,0,0,0-7.69,4.29q-2.37,4.27-2.37,11.31,0,12.87,8.23,12.86a7.93,7.93,0,0,0,5.71-2.11A6.44,6.44,0,0,0,273,118.24Z"/><path class="cls-1" d="M293.1,128.47V83c0-1.21-.66-1.84-2-1.9l-2.77-.16V74.3h14V93.09c2.38-2.21,5.57-3.33,9.58-3.33q7.46,0,11.82,5T328.08,109q0,22.91-19.21,22.9a40.85,40.85,0,0,1-8.66-1A26.45,26.45,0,0,1,293.1,128.47Zm9.21-25.69V123.3a14.42,14.42,0,0,0,7,1.61q9,0,9-14.69,0-13.39-8.87-13.4a7.89,7.89,0,0,0-5,1.67A5.22,5.22,0,0,0,302.31,102.78Z"/><path class="cls-1" d="M351.7,89.76q5.94,0,9.42,2.9a10,10,0,0,1,3.5,8.14,12.28,12.28,0,0,1-5.23,10.32,19,19,0,0,1-5.4,2.43A41.65,41.65,0,0,1,342,115.14a10.53,10.53,0,0,0,2.6,6.79q2.37,2.58,7.29,2.58a16.9,16.9,0,0,0,9.83-3.5l3,6.42a18.47,18.47,0,0,1-5.36,2.94,23.11,23.11,0,0,1-8.6,1.5q-9.68,0-14.19-5.34t-4.52-14.71q0-9.37,5.14-15.7T351.7,89.76Zm-3.6,18.13a13,13,0,0,0,5.35-2.3,5.16,5.16,0,0,0,2.46-4.25c0-3.21-1.59-4.83-4.77-4.83a7.7,7.7,0,0,0-6.81,3.54,16.24,16.24,0,0,0-2.63,8.44A40.86,40.86,0,0,0,348.1,107.89Zm-5.21-24.15,9.21-15.23,3.73,1.75c1.52.85,2.29,1.8,2.29,2.86s-.66,2.19-2,3.41L346,86.37Z"/><path class="cls-1" d="M377.07,82.55h5.15V91h10.56L392,97.62h-9.77v20.85c0,2.33.42,4,1.27,4.9a5.09,5.09,0,0,0,3.91,1.37,10.15,10.15,0,0,0,5.38-1.67l2.37,6.11a19.88,19.88,0,0,1-16.1,1.85,10.74,10.74,0,0,1-3.65-2,7.29,7.29,0,0,1-1.83-3.25,17,17,0,0,1-.71-3.37q-.06-1.23-.06-3.63V97.62h-5.65l.8-5.8a7.65,7.65,0,0,0,5.62-2.64A23,23,0,0,0,377.07,82.55Z"/><path class="cls-1" d="M410.6,91v33.29l4.52.25v6.33H396.27v-6l2.6-.25a2.27,2.27,0,0,0,2.32-2.52V100a2.77,2.77,0,0,0-.44-1.81,2,2,0,0,0-1.56-.48l-2.77-.17V91Zm-10-6.88A5.52,5.52,0,0,1,399,80a6.15,6.15,0,0,1,10.41-4.25A5.78,5.78,0,0,1,411.08,80a5.45,5.45,0,0,1-1.71,4.14A6,6,0,0,1,405,85.72,6,6,0,0,1,400.62,84.09Z"/><path class="cls-1" d="M427.42,110.47q0,6.73,2.54,10.46a8.32,8.32,0,0,0,7.33,3.73,16,16,0,0,0,9.48-3.42l3.4,6.13q-5.62,4.57-14.1,4.58t-13.36-5.36q-4.87-5.34-4.87-15.81t5.58-15.73A17.88,17.88,0,0,1,436,89.76,27.06,27.06,0,0,1,449.07,93v10.29l-7.3.57v-3.82c0-1.41-.51-2.29-1.54-2.64a9.9,9.9,0,0,0-3.21-.52Q427.42,96.91,427.42,110.47Z"/><path class="cls-1" d="M471.51,125.05q8.64,0,8.64-14,0-7-1.95-10.68a6.77,6.77,0,0,0-6.5-3.67,7.28,7.28,0,0,0-6.69,3.5c-1.43,2.32-2.15,5.5-2.15,9.52q0,11.17,4.13,14A7.72,7.72,0,0,0,471.51,125.05Zm-18.23-14.18A27.14,27.14,0,0,1,455,100.68a15.5,15.5,0,0,1,4.69-6.63,20,20,0,0,1,12.43-4.29,18.79,18.79,0,0,1,8.07,1.56,16.45,16.45,0,0,1,5.14,3.57,16.24,16.24,0,0,1,3.17,5.87,28.21,28.21,0,0,1,1.31,9.06q0,11-5.31,16.59A17.89,17.89,0,0,1,470.9,132q-8.26,0-12.95-5.35T453.28,110.87Z"/><path class="cls-2" d="M152.52,5.39v125"/><path class="cls-3" d="M18.73,76.64a9.74,9.74,0,0,1-.71,3.9,6.72,6.72,0,0,1-2,2.69,8.93,8.93,0,0,1-3.35,1.54,19.19,19.19,0,0,1-4.61.5H0V56.12H8.06a17,17,0,0,1,4.11.42,6.82,6.82,0,0,1,2.64,1.23,4.46,4.46,0,0,1,1.46,2,8.17,8.17,0,0,1,.44,2.77,7.78,7.78,0,0,1-1.06,4.29,6.36,6.36,0,0,1-3.42,2.44,9.83,9.83,0,0,1,2.48.71,6.8,6.8,0,0,1,2.08,1.42,6.39,6.39,0,0,1,1.42,2.18A8.23,8.23,0,0,1,18.73,76.64ZM14.71,63a8.13,8.13,0,0,0-.33-2.42A3.12,3.12,0,0,0,13.21,59,5.59,5.59,0,0,0,10.88,58,21.47,21.47,0,0,0,7,57.75H1.81V69h5a10.19,10.19,0,0,0,5.9-1.4A5.19,5.19,0,0,0,14.71,63Zm2,13.81a6.79,6.79,0,0,0-.69-3.31,4.56,4.56,0,0,0-1.89-1.88,8.08,8.08,0,0,0-2.86-.83,33,33,0,0,0-3.58-.19H1.81v13H7.13a25.76,25.76,0,0,0,4.18-.29,8,8,0,0,0,3-1.08,5,5,0,0,0,1.82-2.11A7.79,7.79,0,0,0,16.75,76.83Z"/><path class="cls-3" d="M35.87,85.27V56.12h1.82v27.5H51.83v1.65Z"/><path class="cls-3" d="M88.39,70.71A30.23,30.23,0,0,1,87.78,77a13.72,13.72,0,0,1-1.89,4.79,8.8,8.8,0,0,1-3.44,3,13.33,13.33,0,0,1-10.42,0,9,9,0,0,1-3.45-3A13,13,0,0,1,66.66,77a34.18,34.18,0,0,1,0-12.54,13.07,13.07,0,0,1,1.92-4.8,9,9,0,0,1,3.45-3,11.38,11.38,0,0,1,5.19-1.08,11.61,11.61,0,0,1,5.23,1.06,8.85,8.85,0,0,1,3.44,3,13.54,13.54,0,0,1,1.89,4.77A30.39,30.39,0,0,1,88.39,70.71Zm-2,0A30.59,30.59,0,0,0,85.93,65a11.73,11.73,0,0,0-1.56-4.23,7.26,7.26,0,0,0-2.84-2.61,9.45,9.45,0,0,0-4.31-.89,9.62,9.62,0,0,0-4.31.87,7,7,0,0,0-2.83,2.59,11.69,11.69,0,0,0-1.57,4.2,33.35,33.35,0,0,0-.46,5.8,32.32,32.32,0,0,0,.46,5.68,12.68,12.68,0,0,0,1.54,4.23,7.1,7.1,0,0,0,2.84,2.63,9.44,9.44,0,0,0,4.33.89,9.59,9.59,0,0,0,4.31-.87,7.1,7.1,0,0,0,2.84-2.63,11.87,11.87,0,0,0,1.56-4.23A30.33,30.33,0,0,0,86.41,70.71Z"/><path class="cls-3" d="M124.14,62.14A11.64,11.64,0,0,0,122.77,60a6.62,6.62,0,0,0-1.71-1.55,7,7,0,0,0-2.17-.87,11.85,11.85,0,0,0-2.71-.29,10.23,10.23,0,0,0-4.39.85,7.15,7.15,0,0,0-3,2.52,11.42,11.42,0,0,0-1.67,4.19,32.38,32.38,0,0,0,0,11.56,11.41,11.41,0,0,0,1.75,4.25,7.8,7.8,0,0,0,3.19,2.63,11.41,11.41,0,0,0,4.79.89,14.53,14.53,0,0,0,1.77-.1,14.23,14.23,0,0,0,1.73-.31c.57-.14,1.15-.32,1.73-.52s1.21-.48,1.85-.77V73h-8.45V71.33h10.27V83.54q-1.25.58-2.25,1a16.37,16.37,0,0,1-2,.73,16,16,0,0,1-2.17.44,22.32,22.32,0,0,1-2.63.14A13.19,13.19,0,0,1,111,84.75a9.51,9.51,0,0,1-3.73-3.17,13.13,13.13,0,0,1-2-4.85,29.91,29.91,0,0,1-.59-6.21,29.18,29.18,0,0,1,.61-6.25,12.63,12.63,0,0,1,2-4.73,9.11,9.11,0,0,1,3.62-3,12.94,12.94,0,0,1,5.48-1,13.4,13.4,0,0,1,3.33.37A8.66,8.66,0,0,1,122.27,57a8.38,8.38,0,0,1,2,1.81,13.08,13.08,0,0,1,1.56,2.44Z"/></g></g></svg>